<svg xmlns="http://www.w3.org/2000/svg" viewBox="0 0 128 64"><defs><linearGradient id="g" x1="0" x2="1"><stop offset="0" stop-color="#5DADE2"/><stop offset="1" stop-color="#85C1E9"/></linearGradient></defs><rect width="128" height="64" rx="8" fill="#f5f7fb"/><g transform="translate(4,4)"><path d="M12 28h68l12-10h8a8 8 0 0 1 8 8v10a6 6 0 0 1-6 6h-4a10 10 0 1 1-20 0H42a10 10 0 1 1-20 0h-2a8 8 0 0 1-8-8v-4a2 2 0 0 1 2-2z" fill="url(#g)"/><circle cx="34" cy="42" r="8" fill="#2c3e50"/><circle cx="98" cy="42" r="8" fill="#2c3e50"/><circle cx="34" cy="42" r="4" fill="#ecf0f1"/><circle cx="98" cy="42" r="4" fill="#ecf0f1"/></g></svg>
